<svg xmlns="http://www.w3.org/2000/svg" viewBox="0 0 376 366">
  <path fill="black" d="M327 25c-21,-3 -51,-1 -75,-1l-148 0c-35,0 -81,-7 -81,26 0,34 52,24 89,24l153 0c36,0 87,10 87,-24 0,-14 -9,-23 -25,-25zm5 267c-20,-4 -52,-1 -75,-1l-148 0 -38 0c-27,0 -47,1 -47,25 0,33 45,26 82,26l160 0c36,0 86,8 86,-26 0,-12 -9,-22 -20,-24zm33 -7c20,26 7,66 -19,76 -18,8 -53,4 -77,4l-159 0c-25,0 -59,4 -78,-3 -41,-14 -44,-74 0,-91 18,-8 52,-4 74,-4l149 0c25,0 55,-2 77,1 12,2 25,7 33,17zm-35 -124c-21,-3 -52,0 -75,0l-146 0 -37 0c-26,0 -48,0 -49,24 -1,34 48,26 86,26l156 0c37,0 88,9 87,-26 0,-13 -10,-22 -22,-24zm41 6c12,29 -6,57 -27,65 -18,6 -52,2 -77,2l-158 0c-25,0 -60,4 -78,-2 -24,-9 -39,-43 -25,-70 5,-9 14,-18 27,-22 21,-7 51,-3 73,-3l152 0c24,0 55,-2 76,1 19,3 31,15 37,29zm1 -136c12,30 -8,57 -27,64 -17,7 -51,3 -76,3l-159 0c-24,0 -59,4 -77,-2 -25,-8 -42,-40 -28,-69 5,-8 13,-18 26,-23 20,-7 50,-3 73,-3l151 0c25,0 55,-2 78,1 19,2 34,15 39,29z"/>
</svg>
